HIERARCHY
ROOT SpineBase
{
  OFFSET 0.000000 0.000000 0.000000
  CHANNELS 6 Xposition Yposition Zposition Zrotation Xrotation Yrotation
  JOINT SpineMid
  {
    OFFSET -0.000000 35.368996 0.000000
    CHANNELS 3 Zrotation Xrotation Yrotation
    JOINT SpineShoulder
    {
      OFFSET -0.601397 25.868213 -0.971778
      CHANNELS 3 Zrotation Xrotation Yrotation
      JOINT Neck
      {
        OFFSET -0.574803 8.434081 -0.662178
        CHANNELS 3 Zrotation Xrotation Yrotation
        JOINT Head
        {
          OFFSET -8.161104 10.135503 7.379665
          CHANNELS 3 Zrotation Xrotation Yrotation
          End Site
          {
            OFFSET 0 0 0
          }
        }
      }
      JOINT ShoulderLeft
      {
        OFFSET -7.285954 -11.418694 19.132043
        CHANNELS 3 Zrotation Xrotation Yrotation
        JOINT ElbowLeft
        {
          OFFSET -4.895387 -25.423864 6.241172
          CHANNELS 3 Zrotation Xrotation Yrotation
          JOINT WristLeft
          {
            OFFSET 3.535093 -7.457916 -26.985298
            CHANNELS 3 Zrotation Xrotation Yrotation
            JOINT HandLeft
            {
              OFFSET 1.928977 -5.527307 -7.309072
              CHANNELS 3 Zrotation Xrotation Yrotation
              JOINT HandTipLeft
              {
                OFFSET 2.536414 -5.751370 -4.399793
                CHANNELS 3 Zrotation Xrotation Yrotation
                End Site
                {
                  OFFSET 0 0 0
                }
              }
              JOINT ThumbLeft
              {
                OFFSET 2.081267 6.888238 -5.246706
                CHANNELS 3 Zrotation Xrotation Yrotation
                End Site
                {
                  OFFSET 0 0 0
                }
              }
            }
          }
        }
      }
      JOINT ShoulderRight
      {
        OFFSET 4.413192 -6.275618 -14.874621
        CHANNELS 3 Zrotation Xrotation Yrotation
        JOINT ElbowRight
        {
          OFFSET 2.922807 -26.398315 -8.173520
          CHANNELS 3 Zrotation Xrotation Yrotation
          JOINT WristRight
          {
            OFFSET -5.139158 -22.436018 -4.478628
            CHANNELS 3 Zrotation Xrotation Yrotation
            JOINT HandRight
            {
              OFFSET -1.717177 -7.738756 1.678359
              CHANNELS 3 Zrotation Xrotation Yrotation
              JOINT HandTipRight
              {
                OFFSET -1.196810 -6.415056 1.003104
                CHANNELS 3 Zrotation Xrotation Yrotation
                End Site
                {
                  OFFSET 0 0 0
                }
              }
              JOINT ThumbRight
              {
                OFFSET -3.550715 -2.879334 -6.017081
                CHANNELS 3 Zrotation Xrotation Yrotation
                End Site
                {
                  OFFSET 0 0 0
                }
              }
            }
          }
        }
      }
    }
  }
  JOINT HipLeft
  {
    OFFSET -2.646504 -1.259530 0.438070
    CHANNELS 3 Zrotation Xrotation Yrotation
    JOINT KneeLeft
    {
      OFFSET 7.486929 -43.550869 11.448059
      CHANNELS 3 Zrotation Xrotation Yrotation
      JOINT AnkleLeft
      {
        OFFSET 6.369069 -30.634085 -1.988794
        CHANNELS 3 Zrotation Xrotation Yrotation
        JOINT FootLeft
        {
          OFFSET -5.697001 -4.172592 2.702665
          CHANNELS 3 Zrotation Xrotation Yrotation
          End Site
          {
            OFFSET 0 0 0
          }
        }
      }
    }
  }
  JOINT HipRight
  {
    OFFSET 2.187482 2.843108 -8.667623
    CHANNELS 3 Zrotation Xrotation Yrotation
    JOINT KneeRight
    {
      OFFSET 5.508023 -36.582190 -6.156633
      CHANNELS 3 Zrotation Xrotation Yrotation
      JOINT AnkleRight
      {
        OFFSET 8.644003 -36.713896 -3.254905
        CHANNELS 3 Zrotation Xrotation Yrotation
        JOINT FootRight
        {
          OFFSET -2.798607 -8.206711 -3.904396
          CHANNELS 3 Zrotation Xrotation Yrotation
          End Site
          {
            OFFSET 0 0 0
          }
        }
      }
    }
  }
}
MOTION
Frames: 6
Frame Time: 0.033333
36.648950 83.298753 300.372799 13.176112 3.459589 51.572924 -1.336413 1.336485 -51.487052 -3.814520 -0.343540 0.198934 -3.682791 0.190816 -1.181999 0.000000 0.000000 0.000000 -7.515712 -2.776914 -0.965100 -0.000000 0.000000 0.000000 5.311984 2.137009 -6.126280 -5.136679 2.477168 7.762208 0.000000 0.000000 0.000000 0.000000 0.000000 0.000000 -7.515712 -2.776914 -0.965100 -1.208152 0.007793 0.238894 14.202938 -0.800727 2.922592 -15.762716 0.588711 -3.108200 0.000000 0.000000 0.000000 0.000000 0.000000 0.000000 -15.813624 11.417404 -52.117094 -15.487092 -2.688578 2.104991 -43.182666 28.505531 -34.269120 0.000000 0.000000 0.000000 -29.574852 28.887818 -40.221437 31.476522 -5.190836 -4.867751 -20.668043 15.634590 5.797224 0.000000 0.000000 0.000000
37.683339 83.710055 300.038645 13.186495 2.704216 54.213350 -1.515005 1.899281 -54.078546 -3.027666 0.004154 0.249409 -4.457459 -0.895781 -1.896228 0.000000 0.000000 0.000000 -7.760902 -2.467636 -0.948626 0.838771 3.367357 -1.318223 2.326748 4.497846 -0.206071 -2.013265 -1.111774 3.267779 0.000000 0.000000 0.000000 0.000000 0.000000 0.000000 -8.236411 -3.377834 -0.932103 -1.272335 0.664298 0.382335 13.291999 0.124754 2.135939 -14.579234 0.789857 -2.982457 0.000000 0.000000 0.000000 0.000000 0.000000 0.000000 -14.270391 13.235915 -54.603314 -16.938001 -4.801448 1.311189 -5.869397 38.894156 -45.886722 0.000000 0.000000 0.000000 -28.335563 31.056613 -42.227114 33.829462 -5.707354 -5.024220 -20.840113 15.395531 5.306812 0.000000 0.000000 0.000000
37.329704 83.799121 299.627167 11.629484 1.985564 57.208263 -1.477763 1.880517 -57.015528 -2.490830 -0.072345 0.222101 -3.574026 -1.131785 -2.530911 0.000000 0.000000 0.000000 -6.774012 -1.600124 -0.738387 0.747681 2.530574 -1.405471 -1.216862 6.186963 4.554971 0.178222 -5.000187 -1.617066 0.000000 0.000000 0.000000 0.000000 0.000000 0.000000 -8.332095 -3.288410 -0.517361 -0.621909 1.252246 0.280352 12.877816 0.846376 1.598474 -14.790656 1.146965 -3.075279 0.000000 0.000000 0.000000 0.000000 0.000000 0.000000 -10.595336 12.752355 -57.568795 -19.508080 -6.988744 -0.051341 11.295754 36.971107 -45.894621 0.000000 0.000000 0.000000 -24.206500 30.541520 -46.460325 34.177519 -5.699369 -4.965971 -24.811915 15.595109 6.852783 0.000000 0.000000 0.000000
36.106865 83.771790 298.831258 8.837065 1.142932 59.582631 -1.666507 1.485335 -59.354739 -2.524176 -0.019428 0.085832 -1.533087 -1.394953 -3.022896 0.000000 0.000000 0.000000 -4.190850 -0.401249 -0.372031 -0.376286 -1.909997 0.479497 -4.788157 6.594542 8.069221 2.516238 -5.819134 -7.037968 0.000000 0.000000 0.000000 0.000000 0.000000 0.000000 -7.344888 -2.939149 0.230186 0.008023 1.495016 0.214696 11.729064 2.434002 0.382248 -13.633406 1.241152 -2.889916 0.000000 0.000000 0.000000 0.000000 0.000000 0.000000 -7.150987 10.830284 -60.070596 -19.101979 -8.637601 -1.035615 19.072951 36.059588 -44.605165 0.000000 0.000000 0.000000 -18.681902 26.816323 -51.302439 32.185601 -5.045478 -4.747443 -31.676042 16.209683 10.151032 0.000000 0.000000 0.000000
34.866772 83.698864 297.647802 5.704459 0.248328 61.965893 -1.627490 1.049081 -61.785541 -2.636662 0.021633 -0.056896 -0.015521 -2.130968 -3.318938 0.000000 0.000000 0.000000 -1.375836 0.681305 -0.053480 -2.155462 -10.401051 4.018238 -8.652564 4.864405 11.072927 3.634726 -4.193212 -13.438237 0.000000 0.000000 0.000000 0.000000 0.000000 0.000000 -6.270271 -2.626664 1.027045 0.608636 1.560302 0.131586 9.733686 4.270555 -1.045847 -11.708901 0.220790 -2.335764 0.000000 0.000000 0.000000 0.000000 0.000000 0.000000 -4.554992 8.893316 -62.712204 -15.080038 -11.211332 -1.939341 18.654149 37.798738 -42.957508 0.000000 0.000000 0.000000 -13.712604 21.467691 -56.108784 28.848667 -3.775140 -4.517289 -40.246752 16.719992 14.792127 0.000000 0.000000 0.000000
33.107506 83.607632 296.520228 2.179062 -0.723069 63.786212 -1.734924 0.707393 -63.745779 -2.762976 0.005984 -0.225412 1.589669 -3.051171 -3.625656 0.000000 0.000000 0.000000 1.977380 1.968210 0.255489 -4.071860 -24.095399 10.767108 -11.754405 -1.769357 7.895420 7.126148 6.868607 -18.173872 0.000000 0.000000 0.000000 0.000000 0.000000 0.000000 -4.928845 -2.182690 1.964570 1.618241 1.727271 -0.098697 7.752973 7.333972 -2.593918 -10.867536 -2.590469 -1.848478 0.000000 0.000000 0.000000 0.000000 0.000000 0.000000 -2.937093 6.749320 -64.991277 -8.996576 -12.352818 -1.840669 11.868987 39.306092 -40.451398 0.000000 0.000000 0.000000 -8.972314 14.280586 -60.335863 23.677846 -2.281875 -3.973034 -49.212955 16.584485 20.032999 0.000000 0.000000 0.000000
